# xmcd
#
# Track frame offsets: 
#        150
#        13782
#        26270
#        38690
#        52197
#        66085
#        79872
#        93182
#        106477
#        120012
#        133477
#        145520
#        158670
#        170925
#        185725
#        199290
#        212867
#        227740
#        240455
#        253800
#
# Disc length: 3563 seconds
#
# Revision: 3
# Processed by: cddbd v1.5.1PL0 Copyright (c) Steve Scherf et al.
# Submitted via: ExactAudioCopy v0.95a5
#
DISCID=190de914
DTITLE=Memphis Minnie - Hoodoo Lady
DYEAR=1991
DGENRE=Blues
TTITLE0=Down In The Alley
TTITLE1=Has Anyone Seen My Man?
TTITLE2=I Hate To See The Sun Go Down
TTITLE3=Ice Man (Come On Up)
TTITLE4=Hoodoo Lady
TTITLE5=I'm A Bad Luck Woman
TTITLE6=Caught Me Wrong Again
TTITLE7=Black Cat Blues
TTITLE8=Good Morning
TTITLE9=Man, You Won't Give Me No Money
TTITLE10=Keep On Eatin'
TTITLE11=I've Been Treated Wrong
TTITLE12=Good Biscuits
TTITLE13=Ain't No Use Tryin' To Tell On Me (I Know Something On You)
TTITLE14=My Butcher Man
TTITLE15=My Strange Man
TTITLE16=If You See My Rooster (Please Run Him Home)
TTITLE17=My Baby Don't Want Me No More
TTITLE18=Please Don't Stop Him
TTITLE19=I'm Going Don't You Know
EXTD=more info
EXTT0=
EXTT1=
EXTT2=
EXTT3=
EXTT4=
EXTT5=
EXTT6=
EXTT7=
EXTT8=
EXTT9=
EXTT10=
EXTT11=
EXTT12=
EXTT13=
EXTT14=
EXTT15=
EXTT16=
EXTT17=
EXTT18=
EXTT19=
PLAYORDER=
